<svg width="532" height="258" viewBox="0 0 532 258" fill="none" xmlns="http://www.w3.org/2000/svg">
<circle cx="306.589" cy="68.4954" r="18.5065" fill="#262626" stroke="#61DFFF"/>
<path d="M302.684 73.2988H301.613V64.6664H298.361V63.692H305.936V64.6664H302.684V73.2988Z" fill="#61DFFF"/>
<path d="M313.528 63.692H314.818L311.223 68.4817L314.818 73.2988H313.501L310.564 69.3189L307.613 73.2988H306.323L309.919 68.5091L306.323 63.692H307.641L310.591 67.6583L313.528 63.692Z" fill="#61DFFF"/>
<circle cx="160.244" cy="98.3355" r="18.5065" fill="#262626" stroke="#61DFFF"/>
<path d="M156.339 103.139H155.268V94.5065H152.016V93.5321H159.591V94.5065H156.339V103.139Z" fill="#61DFFF"/>
<path d="M167.183 93.5321H168.473L164.877 98.3218L168.473 103.139H167.156L164.219 99.1589L161.268 103.139H159.978L163.574 98.3492L159.978 93.5321H161.295L164.246 97.4983L167.183 93.5321Z" fill="#61DFFF"/>
<circle cx="72.5519" cy="143.508" r="18.5065" fill="#262626" stroke="#61DFFF"/>
<path d="M68.6463 148.312H67.5758V139.679H64.3232V138.705H71.8989V139.679H68.6463V148.312Z" fill="#61DFFF"/>
<path d="M79.4906 138.705H80.7807L77.185 143.495L80.7807 148.312H79.4632L76.5262 144.332L73.5756 148.312H72.2855L75.8812 143.522L72.2855 138.705H73.603L76.5537 142.671L79.4906 138.705Z" fill="#61DFFF"/>
<circle cx="233.536" cy="231.549" r="18.5065" fill="#262626" stroke="#61DFFF"/>
<path d="M229.631 236.352H228.56V227.72H225.308V226.745H232.883V227.72H229.631V236.352Z" fill="#61DFFF"/>
<path d="M240.475 226.745H241.765L238.169 231.535L241.765 236.352H240.448L237.511 232.372L234.56 236.352H233.27L236.866 231.563L233.27 226.745H234.587L237.538 230.712L240.475 226.745Z" fill="#61DFFF"/>
<circle cx="236.056" cy="109.495" r="18.5065" fill="#262626" stroke="#61DFFF"/>
<path d="M232.15 114.299H231.08V105.666H227.827V104.692H235.403V105.666H232.15V114.299Z" fill="#61DFFF"/>
<path d="M242.995 104.692H244.285L240.689 109.482L244.285 114.299H242.967L240.03 110.319L237.079 114.299H235.789L239.385 109.509L235.789 104.692H237.107L240.058 108.658L242.995 104.692Z" fill="#61DFFF"/>
<circle cx="263.096" cy="170.747" r="18.5065" fill="#262626" stroke="#61DFFF"/>
<path d="M259.19 175.55H258.12V166.918H254.867V165.943H262.443V166.918H259.19V175.55Z" fill="#61DFFF"/>
<path d="M270.035 165.943H271.325L267.729 170.733L271.325 175.55H270.007L267.07 171.57L264.12 175.55H262.829L266.425 170.76L262.829 165.943H264.147L267.098 169.91L270.035 165.943Z" fill="#61DFFF"/>
<circle cx="336.255" cy="217.346" r="18.5065" fill="#262626" stroke="#61DFFF"/>
<path d="M332.349 222.149H331.279V213.517H328.026V212.542H335.602V213.517H332.349V222.149Z" fill="#61DFFF"/>
<path d="M343.194 212.542H344.484L340.888 217.332L344.484 222.149H343.166L340.229 218.169L337.279 222.149H335.989L339.584 217.359L335.989 212.542H337.306L340.257 216.509L343.194 212.542Z" fill="#61DFFF"/>
<circle cx="397.369" cy="174.502" r="18.5065" fill="#262626" stroke="#61DFFF"/>
<path d="M393.464 179.305H392.393V170.673H389.141V169.698H396.716V170.673H393.464V179.305Z" fill="#61DFFF"/>
<path d="M404.308 169.698H405.598L402.002 174.488L405.598 179.305H404.281L401.344 175.325L398.393 179.305H397.103L400.699 174.516L397.103 169.698H398.42L401.371 173.665L404.308 169.698Z" fill="#61DFFF"/>
<circle cx="329.701" cy="133.902" r="18.5065" fill="#262626" stroke="#61DFFF"/>
<path d="M325.796 138.705H324.725V130.073H321.473V129.098H329.048V130.073H325.796V138.705Z" fill="#61DFFF"/>
<path d="M336.64 129.098H337.93L334.334 133.888L337.93 138.705H336.613L333.676 134.725L330.725 138.705H329.435L333.031 133.915L329.435 129.098H330.752L333.703 133.064L336.64 129.098Z" fill="#61DFFF"/>
<circle cx="154.795" cy="181.521" r="18.5065" fill="#262626" stroke="#61DFFF"/>
<path d="M150.889 186.325H149.819V177.692H146.566V176.718H154.142V177.692H150.889V186.325Z" fill="#61DFFF"/>
<path d="M161.733 176.718H163.023L159.428 181.508L163.023 186.325H161.706L158.769 182.345L155.818 186.325H154.528L158.124 181.535L154.528 176.718H155.846L158.796 180.684L161.733 176.718Z" fill="#61DFFF"/>
<circle cx="408.147" cy="98.3355" r="18.5065" fill="#262626" stroke="#61DFFF"/>
<path d="M404.242 103.139H403.171V94.5065H399.918V93.5321H407.494V94.5065H404.242V103.139Z" fill="#61DFFF"/>
<path d="M415.086 93.5321H416.376L412.78 98.3218L416.376 103.139H415.058L412.121 99.1589L409.171 103.139H407.881L411.476 98.3492L407.881 93.5321H409.198L412.149 97.4983L415.086 93.5321Z" fill="#61DFFF"/>
<circle cx="384.984" cy="35.0787" r="18.5065" fill="#262626" stroke="#61DFFF"/>
<path d="M381.078 39.8821H380.008V31.2497H376.755V30.2753H384.331V31.2497H381.078V39.8821Z" fill="#61DFFF"/>
<path d="M391.923 30.2753H393.213L389.617 35.065L393.213 39.8821H391.895L388.958 35.9022L386.008 39.8821H384.718L388.313 35.0925L384.718 30.2753H386.035L388.986 34.2416L391.923 30.2753Z" fill="#61DFFF"/>
<circle cx="227.505" cy="30.4825" r="18.5065" fill="#262626" stroke="#61DFFF"/>
<path d="M223.599 35.2859H222.528V26.6535H219.276V25.6791H226.852V26.6535H223.599V35.2859Z" fill="#61DFFF"/>
<path d="M234.443 25.6791H235.733L232.138 30.4688L235.733 35.2859H234.416L231.479 31.3059L228.528 35.2859H227.238L230.834 30.4962L227.238 25.6791H228.556L231.506 29.6453L234.443 25.6791Z" fill="#61DFFF"/>
<circle cx="449.776" cy="217.346" r="18.5065" fill="#262626" stroke="#61DFFF"/>
<path d="M445.871 222.149H444.8V213.517H441.548V212.542H449.124V213.517H445.871V222.149Z" fill="#61DFFF"/>
<path d="M456.715 212.542H458.005L454.41 217.332L458.005 222.149H456.688L453.751 218.169L450.8 222.149H449.51L453.106 217.359L449.51 212.542H450.828L453.778 216.509L456.715 212.542Z" fill="#61DFFF"/>
<circle cx="493.54" cy="100.692" r="18.5065" fill="#262626" stroke="#61DFFF"/>
<path d="M489.635 105.495H488.564V96.863H485.312V95.8886H492.887V96.863H489.635V105.495Z" fill="#61DFFF"/>
<path d="M500.479 95.8886H501.769L498.173 100.678L501.769 105.495H500.451L497.515 101.515L494.564 105.495H493.274L496.869 100.706L493.274 95.8886H494.591L497.542 99.8549L500.479 95.8886Z" fill="#61DFFF"/>
<circle cx="490.692" cy="35.0787" r="18.5065" fill="#262626" stroke="#61DFFF"/>
<path d="M486.786 39.8821H485.715V31.2497H482.463V30.2753H490.039V31.2497H486.786V39.8821Z" fill="#61DFFF"/>
<path d="M497.63 30.2753H498.92L495.325 35.065L498.92 39.8821H497.603L494.666 35.9022L491.715 39.8821H490.425L494.021 35.0925L490.425 30.2753H491.743L494.693 34.2416L497.63 30.2753Z" fill="#61DFFF"/>
<circle cx="71.235" cy="220.156" r="18.5065" fill="#262626" stroke="#61DFFF"/>
<path d="M67.3294 224.959H66.2589V216.327H63.0063V215.352H70.582V216.327H67.3294V224.959Z" fill="#61DFFF"/>
<path d="M78.1737 215.352H79.4638L75.8681 220.142L79.4638 224.959H78.1463L75.2093 220.979L72.2587 224.959H70.9686L74.5643 220.169L70.9686 215.352H72.2861L75.2368 219.319L78.1737 215.352Z" fill="#61DFFF"/>
<circle cx="466.133" cy="30.4825" r="18.5065" fill="#262626" stroke="#61DFFF"/>
<path d="M462.227 35.2859H461.157V26.6535H457.904V25.6791H465.48V26.6535H462.227V35.2859Z" fill="#61DFFF"/>
<path d="M473.072 25.6791H474.362L470.766 30.4688L474.362 35.2859H473.044L470.107 31.3059L467.157 35.2859H465.867L469.462 30.4962L465.867 25.6791H467.184L470.135 29.6453L473.072 25.6791Z" fill="#61DFFF"/>
<path d="M117.529 41.8236C117.529 51.1052 109.859 58.6454 100.378 58.6454C90.8965 58.6454 83.2266 51.1052 83.2266 41.8236C83.2266 32.5421 90.8965 25.0019 100.378 25.0019C109.859 25.0019 117.529 32.5421 117.529 41.8236Z" fill="#262626" stroke="#61DFFF"/>
<path d="M96.7511 46.2013H95.757V38.334H92.7363V37.446H99.7718V38.334H96.7511V46.2013Z" fill="#61DFFF"/>
<path d="M106.822 37.446H108.02L104.681 41.8111L108.02 46.2013H106.797L104.069 42.5741L101.329 46.2013H100.131L103.47 41.8361L100.131 37.446H101.354L104.095 41.0607L106.822 37.446Z" fill="#61DFFF"/>
<rect width="531.232" height="257.004" rx="2" fill="url(#paint0_radial_16_101)"/>
<defs>
<radialGradient id="paint0_radial_16_101" cx="0" cy="0" r="1" gradientUnits="userSpaceOnUse" gradientTransform="translate(265.616 128.502) rotate(90) scale(128.502 265.616)">
<stop stop-color="#1D1D1D" stop-opacity="0"/>
<stop offset="1" stop-color="#1D1D1D"/>
</radialGradient>
</defs>
</svg>
