<svg width="55" height="54" viewBox="0 0 55 54" fill="none" xmlns="http://www.w3.org/2000/svg">
<path d="M27.9298 53.348C42.4912 53.348 54.2956 41.4056 54.2956 26.674C54.2956 11.9424 42.4912 0 27.9298 0C13.3684 0 1.56396 11.9424 1.56396 26.674C1.56396 41.4056 13.3684 53.348 27.9298 53.348Z" fill="#5E464D"/>
<path d="M19.6378 50.3266C20.7163 50.6948 24.3385 51.8726 24.4926 50.7209C24.5762 50.0889 22.6645 49.4413 20.0765 48.0702C16.3957 46.1249 13.0284 43.637 10.0875 40.6901C5.79492 36.4811 3.32664 30.7549 3.21399 24.7442C2.99462 16.6746 6.14933 10.151 11.3384 5.94128C8.2051 8.35969 5.65084 11.4467 3.86179 14.9774C2.07274 18.508 1.09397 22.3934 0.996813 26.3503C0.842733 32.187 2.47493 37.1045 5.54084 41.5806C6.49288 42.8102 7.60576 43.9064 8.84963 44.8398C11.7876 47.0622 16.0835 49.1174 19.6378 50.3239" fill="white"/>
<path d="M54.6579 20.5604C53.0231 12.8721 47.9411 7.48979 41.1433 3.68742C46.3324 7.38794 53.6577 15.2564 49.3435 22.1978C45.6874 27.7577 36.7952 26.6687 31.9378 24.0259C26.1611 20.8921 18.9246 13.841 26.0618 6.94659C30.6816 2.48613 45.387 7.48718 42.799 14.1544C41.2896 18.0325 35.4137 17.1707 32.7708 15.2747C30.8226 13.8749 29.1826 11.4697 30.0496 8.98618C30.3291 8.18967 30.2899 6.95443 29.1643 7.86323C28.326 8.54223 27.903 9.65995 27.7567 10.6993C26.5267 19.3931 42.0156 26.1334 46.6092 17.7217C48.9962 13.3552 45.1311 7.01449 40.2659 4.41865C36.6098 2.46001 32.8022 1.08375 28.1406 1.41802C20.6821 1.94032 14.4223 6.61493 13.6389 14.2353C12.8554 21.8087 17.9191 28.6248 23.8812 32.7013C30.1489 36.9842 38.5736 39.8073 46.2828 37.2532C53.1929 34.9629 56.0472 27.0317 54.6579 20.5578" fill="white"/>
<path d="M44.9328 14.6715C45.6745 9.68877 41.1696 6.26768 37.0095 4.71383C32.105 2.88577 25.6259 3.6849 22.0533 7.7458C19.4418 10.7281 19.6116 15.058 20.9591 18.5627C22.9961 23.8562 27.5949 27.6821 32.9485 29.3352C36.7509 30.5104 41.3524 31.0222 45.207 29.7817C50.8296 27.972 52.6602 22.1091 51.4981 16.7372C51.2493 15.5759 50.8672 14.4473 50.3595 13.3736C49.6492 11.8824 47.4868 8.86353 50.4718 12.5405C50.7861 12.9503 51.0756 13.3785 51.3388 13.8228C51.9573 14.8387 52.4476 15.9273 52.7987 17.0637C54.4335 22.0778 53.1512 27.9276 48.6202 30.9543C45.1443 33.2707 40.7256 33.5475 36.6935 32.9678C31.2876 32.1843 26.1926 29.5728 22.6514 25.3709C19.4183 21.5398 17.2116 16.0374 18.5408 11.0076C19.5149 7.32796 22.5025 4.58065 26.0803 3.43419C30.606 1.96913 35.5862 2.65074 39.6601 5.02983C41.7023 6.21806 43.5774 7.86332 44.609 10.0204C45.0814 10.9922 45.3355 12.0556 45.3532 13.136C45.3636 13.5735 45.3295 14.011 45.2514 14.4417C45.2227 14.5984 44.891 15.0398 44.938 14.6768" fill="#3FE0C5"/>
</svg>
